<svg width="200" height="200" viewBox="0 0 200 200" fill="none" xmlns="http://www.w3.org/2000/svg">
  <path d="M100 180C144.183 180 180 144.183 180 100C180 55.8172 144.183 20 100 20C55.8172 20 20 55.8172 20 100C20 144.183 55.8172 180 100 180Z" stroke="#4285F4" stroke-width="12"/>
  <path d="M100 140C122.091 140 140 122.091 140 100C140 77.9086 122.091 60 100 60C77.9086 60 60 77.9086 60 100C60 122.091 77.9086 140 100 140Z" fill="#4285F4"/>
  <path d="M100 120C111.046 120 120 111.046 120 100C120 88.9543 111.046 80 100 80C88.9543 80 80 88.9543 80 100C80 111.046 88.9543 120 100 120Z" fill="white"/>
</svg>

